<?xml version="1.0" encoding="UTF-8" standalone="no"?>
<svg
   xmlns:dc="http://purl.org/dc/elements/1.1/"
   xmlns:cc="http://creativecommons.org/ns#"
   xmlns:rdf="http://www.w3.org/1999/02/22-rdf-syntax-ns#"
   xmlns:svg="http://www.w3.org/2000/svg"
   xmlns="http://www.w3.org/2000/svg"
   xmlns:sodipodi="http://sodipodi.sourceforge.net/DTD/sodipodi-0.dtd"
   xmlns:inkscape="http://www.inkscape.org/namespaces/inkscape"
   inkscape:version="1.0 (4035a4f, 2020-05-01)"
   sodipodi:docname="attention_marker.svg"
   class=""
   height="512px"
   width="512px"
   xml:space="preserve"
   style="enable-background:new 0 0 512 512;"
   viewBox="0 0 512 512"
   y="0px"
   x="0px"
   id="Capa_1"
   version="1.1"><metadata
   id="metadata320"><rdf:RDF><cc:Work
       rdf:about=""><dc:format>image/svg+xml</dc:format><dc:type
         rdf:resource="http://purl.org/dc/dcmitype/StillImage" /><dc:title></dc:title></cc:Work></rdf:RDF></metadata><defs
   id="defs318" /><sodipodi:namedview
   inkscape:current-layer="Capa_1"
   inkscape:window-maximized="0"
   inkscape:window-y="26"
   inkscape:window-x="0"
   inkscape:cy="256"
   inkscape:cx="256"
   inkscape:zoom="1.3515625"
   showgrid="false"
   id="namedview316"
   inkscape:window-height="874"
   inkscape:window-width="1440"
   inkscape:pageshadow="2"
   inkscape:pageopacity="0"
   guidetolerance="10"
   gridtolerance="10"
   objecttolerance="10"
   borderopacity="1"
   bordercolor="#666666"
   pagecolor="#ffffff" /><g
   id="g313"><path
     id="path309"
     class=""
     data-original="#2196F3"
     d="M256,0C150.112,0,64,86.112,64,192c0,133.088,173.312,307.936,180.672,315.328  C247.808,510.432,251.904,512,256,512c4.096,0,8.192-1.568,11.328-4.672C274.688,499.936,448,325.088,448,192  C448,86.112,361.888,0,256,0z"
     style="fill:#2196F3" /><path
     id="path311"
     data-old_color="#FAFAFA"
     class="active-path"
     data-original="#FAFAFA"
     d="M346.016,163.488l-80-64c-5.856-4.672-14.144-4.672-20,0l-80,64  c-5.312,4.256-7.36,11.392-5.12,17.824S169.216,192,176,192h16v80c0,8.832,7.168,16,16,16h96c8.832,0,16-7.168,16-16v-80h16  c6.784,0,12.832-4.288,15.104-10.688S351.328,167.744,346.016,163.488z"
     style="fill:#2196F3" /></g> <g
   transform="matrix(0.65164224,0,0,0.65212503,98.54352,17.978492)"
   id="g691"><g
     id="g689"><path
       d="m 243.225,333.382 c -13.6,0 -25,11.4 -25,25 0,13.6 11.4,25 25,25 13.1,0 25,-11.4 24.4,-24.4 0.6,-14.3 -10.7,-25.6 -24.4,-25.6 z"
       data-original="#000000"
       class="hovered-path active-path"
       data-old_color="#000000"
       fill="#ffffff"
       id="path683" /><path
       d="m 474.625,421.982 c 15.7,-27.1 15.8,-59.4 0.2,-86.4 l -156.6,-271.2 c -15.5,-27.3 -43.5,-43.5 -74.9,-43.5 -31.4,0 -59.4,16.3 -74.9,43.4 l -156.8,271.5 c -15.6,27.3 -15.5,59.8 0.3,86.9 15.6,26.8 43.5,42.9 74.7,42.9 h 312.8 c 31.3,0 59.4,-16.3 75.2,-43.6 z m -34,-19.6 c -8.7,15 -24.1,23.9 -41.3,23.9 h -312.8 c -17,0 -32.3,-8.7 -40.8,-23.4 -8.6,-14.9 -8.7,-32.7 -0.1,-47.7 l 156.8,-271.4 c 8.5,-14.9 23.7,-23.7 40.9,-23.7 17.1,0 32.4,8.9 40.9,23.8 l 156.7,271.4 c 8.4,14.6 8.3,32.2 -0.3,47.1 z"
       data-original="#000000"
       class="hovered-path active-path"
       data-old_color="#000000"
       fill="#ffffff"
       id="path685" /><path
       d="m 237.025,157.882 c -11.9,3.4 -19.3,14.2 -19.3,27.3 0.6,7.9 1.1,15.9 1.7,23.8 1.7,30.1 3.4,59.6 5.1,89.7 0.6,10.2 8.5,17.6 18.7,17.6 10.2,0 18.2,-7.9 18.7,-18.2 0,-6.2 0,-11.9 0.6,-18.2 1.1,-19.3 2.3,-38.6 3.4,-57.9 0.6,-12.5 1.7,-25 2.3,-37.5 0,-4.5 -0.6,-8.5 -2.3,-12.5 -5.1,-11.2 -17,-16.9 -28.9,-14.1 z"
       data-original="#000000"
       class="hovered-path active-path"
       data-old_color="#000000"
       fill="#ffffff"
       id="path687" /></g></g></svg>
