<?xml version="1.0" encoding="iso-8859-1"?>
<!-- Generator: Adobe Illustrator 19.0.0, SVG Export Plug-In . SVG Version: 6.00 Build 0)  -->
<svg version="1.1" id="Capa_1" xmlns="http://www.w3.org/2000/svg" xmlns:xlink="http://www.w3.org/1999/xlink" x="0px" y="0px"
	 viewBox="0 0 477.867 477.867" style="enable-background:new 0 0 477.867 477.867;" xml:space="preserve">
<g>
	<g>
		<path d="M426.667,136.541h-34.133V51.208c0-28.277-22.923-51.2-51.2-51.2H51.2C22.923,0.008,0,22.931,0,51.208v238.933
			c0,28.277,22.923,51.2,51.2,51.2h8.943l-8.789,66.014c-1.261,9.341,5.289,17.935,14.63,19.196
			c5.294,0.715,10.616-1.09,14.383-4.878l80.299-80.333h10.001v17.067c0,28.277,22.923,51.2,51.2,51.2h52.156l109.722,65.826
			c8.088,4.84,18.568,2.208,23.409-5.88c2.078-3.472,2.855-7.57,2.191-11.562l-8.038-48.384h25.361c28.277,0,51.2-22.923,51.2-51.2
			V187.741C477.867,159.464,454.944,136.541,426.667,136.541z M170.667,187.741v119.467H153.6c-4.526,0.001-8.866,1.8-12.066,5.001
			l-49.681,49.613l4.71-35.362c1.206-9.348-5.394-17.904-14.742-19.111c-0.72-0.093-1.445-0.14-2.171-0.14H51.2
			c-9.426,0-17.067-7.641-17.067-17.067V51.208c0-9.426,7.641-17.067,17.067-17.067h290.133c9.426,0,17.067,7.641,17.067,17.067
			v85.333H221.867C193.59,136.541,170.667,159.464,170.667,187.741z M443.733,358.408c0,9.426-7.641,17.067-17.067,17.067H381.15
			c-9.426,0.003-17.064,7.646-17.062,17.072c0,0.942,0.078,1.882,0.234,2.811l5.291,31.795l-82.074-49.237
			c-2.654-1.596-5.692-2.44-8.789-2.441h-56.883c-9.426,0-17.067-7.641-17.067-17.067V187.741c0-9.426,7.641-17.067,17.067-17.067
			h204.8c9.426,0,17.067,7.641,17.067,17.067V358.408z"/>
	</g>
</g>
<g>
</g>
<g>
</g>
<g>
</g>
<g>
</g>
<g>
</g>
<g>
</g>
<g>
</g>
<g>
</g>
<g>
</g>
<g>
</g>
<g>
</g>
<g>
</g>
<g>
</g>
<g>
</g>
<g>
</g>
</svg>
