<?xml version="1.0" encoding="UTF-8" standalone="no"?>
<svg
   xmlns:dc="http://purl.org/dc/elements/1.1/"
   xmlns:cc="http://creativecommons.org/ns#"
   xmlns:rdf="http://www.w3.org/1999/02/22-rdf-syntax-ns#"
   xmlns:svg="http://www.w3.org/2000/svg"
   xmlns="http://www.w3.org/2000/svg"
   xmlns:sodipodi="http://sodipodi.sourceforge.net/DTD/sodipodi-0.dtd"
   xmlns:inkscape="http://www.inkscape.org/namespaces/inkscape"
   inkscape:version="1.0 (4035a4f, 2020-05-01)"
   sodipodi:docname="nature_red_marker.svg"
   class=""
   height="512px"
   width="512px"
   xml:space="preserve"
   style="enable-background:new 0 0 512 512;"
   viewBox="0 0 512 512"
   y="0px"
   x="0px"
   id="Capa_1"
   version="1.1"><metadata
   id="metadata343"><rdf:RDF><cc:Work
       rdf:about=""><dc:format>image/svg+xml</dc:format><dc:type
         rdf:resource="http://purl.org/dc/dcmitype/StillImage" /><dc:title></dc:title></cc:Work></rdf:RDF></metadata><defs
   id="defs341" /><sodipodi:namedview
   inkscape:current-layer="Capa_1"
   inkscape:window-maximized="0"
   inkscape:window-y="26"
   inkscape:window-x="0"
   inkscape:cy="256"
   inkscape:cx="256"
   inkscape:zoom="1.3515625"
   showgrid="false"
   id="namedview339"
   inkscape:window-height="874"
   inkscape:window-width="1440"
   inkscape:pageshadow="2"
   inkscape:pageopacity="0"
   guidetolerance="10"
   gridtolerance="10"
   objecttolerance="10"
   borderopacity="1"
   bordercolor="#666666"
   pagecolor="#ffffff" /><g
   id="g336"><path
     id="path332"
     data-old_color="#2196F3"
     class=""
     data-original="#2196F3"
     d="M256,0C150.112,0,64,86.112,64,192c0,133.088,173.312,307.936,180.672,315.328  C247.808,510.432,251.904,512,256,512c4.096,0,8.192-1.568,11.328-4.672C274.688,499.936,448,325.088,448,192  C448,86.112,361.888,0,256,0z"
     style="fill:#C12020" /><path
     id="path334"
     data-old_color="#FAFAFA"
     class="active-path"
     data-original="#FAFAFA"
     d="M346.016,163.488l-80-64c-5.856-4.672-14.144-4.672-20,0l-80,64  c-5.312,4.256-7.36,11.392-5.12,17.824S169.216,192,176,192h16v80c0,8.832,7.168,16,16,16h96c8.832,0,16-7.168,16-16v-80h16  c6.784,0,12.832-4.288,15.104-10.688S351.328,167.744,346.016,163.488z"
     style="fill:#C12020" /></g> <g
   transform="matrix(0.58593717,0,0,0.5859375,106.32355,17.317922)"
   id="g490"><g
     id="g488"><path
       d="m 331.8,188.748 -15.09,30.181 38.712,77.426 c 4.409,-2.807 10.144,-3.219 15.067,-0.618 l 57.201,30.221 -69.075,-137.245 c -5.546,-11.021 -21.297,-11.001 -26.815,0.035 z"
       data-original="#000000"
       class="active-path"
       data-old_color="#000000"
       fill="#ffffff"
       id="path474" /><path
       d="m 510.381,490.256 -59.429,-118.08 -78.305,-41.371 73.032,146.07 c 5.569,11.137 6.241,23.725 2.176,35.125 h 49.129 c 11.131,0 18.424,-11.756 13.397,-21.744 z"
       data-original="#000000"
       class="active-path"
       data-old_color="#000000"
       fill="#ffffff"
       id="path476" /><path
       d="m 326.098,305.233 -74.432,-29.724 -28.47,48.433 c -5.791,9.851 -20.069,9.854 -25.861,0 L 168.874,275.524 94.228,305.44 1.806,490.292 C -3.171,500.246 4.075,512 15.222,512 h 124.996 v -50.196 l -3.497,4.092 c -5.384,6.297 -14.851,7.04 -21.148,1.657 -6.298,-5.383 -7.039,-14.851 -1.657,-21.148 l 26.302,-30.774 v -13.926 l -3.497,4.092 c -5.398,6.316 -14.868,7.024 -21.148,1.656 -6.297,-5.382 -7.039,-14.851 -1.656,-21.148 l 29.045,-33.983 c 5.752,-8.154 17.549,-8.406 23.774,-1.097 l 29.899,35.1 c 5.372,6.306 4.615,15.773 -1.691,21.146 -6.307,5.373 -15.774,4.614 -21.145,-1.691 l -3.581,-4.204 v 13.837 l 26.418,31.013 c 5.372,6.307 4.615,15.773 -1.691,21.146 -6.291,5.36 -15.76,4.63 -21.145,-1.691 l -3.581,-4.204 V 512 h 84.997 v -50.196 l -3.497,4.092 c -5.384,6.297 -14.851,7.04 -21.148,1.657 -6.298,-5.383 -7.039,-14.851 -1.657,-21.148 l 26.302,-30.774 v -13.926 l -3.497,4.092 c -5.398,6.316 -14.868,7.024 -21.148,1.656 -6.297,-5.382 -7.039,-14.851 -1.656,-21.148 l 29.045,-33.983 c 5.687,-8.063 17.453,-8.519 23.774,-1.097 l 29.899,35.1 c 5.372,6.306 4.615,15.773 -1.691,21.146 -6.307,5.373 -15.775,4.614 -21.145,-1.691 l -3.581,-4.204 v 13.837 l 26.418,31.013 c 5.372,6.307 4.615,15.773 -1.691,21.146 -6.291,5.36 -15.76,4.63 -21.145,-1.691 l -3.581,-4.204 V 512 h 119.996 c 11.128,0 18.402,-11.737 13.416,-21.708 z"
       data-original="#000000"
       class="active-path"
       data-old_color="#000000"
       fill="#ffffff"
       id="path478" /><path
       d="m 338.405,61 c 10.589,-18.296 30.317,-30 51.953,-30 h 22.503 C 402.621,12.533 382.93,0 360.36,0 324.102,0 295.708,32.211 300.994,68.651 318.596,58.77 333.793,61.447 338.405,61 Z"
       data-original="#000000"
       class="active-path"
       data-old_color="#000000"
       fill="#ffffff"
       id="path480" /><path
       d="m 330.261,151 h 45.863 c 12.678,0 24.047,-8.042 28.291,-20.013 C 406.537,125 412.2,121 418.552,121 h 17.67 c 16.541,0 29.999,-13.458 29.999,-30 0,-16.542 -13.458,-30 -29.999,-30 H 390.359 C 377.681,61 366.312,69.042 362.068,81.013 359.945,87 354.282,91 347.93,91 h -17.669 c -16.541,0 -29.999,13.458 -29.999,30 0,16.542 13.458,30 29.999,30 z"
       data-original="#000000"
       class="active-path"
       data-old_color="#000000"
       fill="#ffffff"
       id="path482" /><path
       d="m 141.232,226 h -1.145 c -3.797,6.561 -8.775,12.268 -14.589,16.898 l -11.061,22.122 55.248,-22.144 c 6.886,-2.76 14.753,-0.072 18.511,6.322 l 22.068,37.542 22.068,-37.542 c 3.755,-6.388 11.609,-9.079 18.493,-6.329 l 55.09,22 -82.286,-164.578 c -5.515,-11.03 -21.31,-11.045 -26.832,0 l -12.17,24.342 C 220.736,162.498 194.182,226 141.232,226 Z"
       data-original="#000000"
       class="active-path"
       data-old_color="#000000"
       fill="#ffffff"
       id="path484" /><path
       d="m 29.999,226 h 55.862 c 12.678,0 24.047,-8.042 28.291,-20.013 C 116.275,200 121.938,196 128.289,196 h 10.67 c 16.541,0 29.999,-13.458 29.999,-30 0,-16.542 -13.458,-30 -29.999,-30 H 103.095 C 90.417,136 79.048,144.042 74.804,156.013 72.683,162 67.02,166 60.668,166 H 29.999 C 13.458,166 0,179.458 0,196 c 0,16.542 13.458,30 29.999,30 z"
       data-original="#000000"
       class="active-path"
       data-old_color="#000000"
       fill="#ffffff"
       id="path486" /></g></g></svg>
