<?xml version="1.0" encoding="UTF-8" standalone="no"?>
<svg
   xmlns:dc="http://purl.org/dc/elements/1.1/"
   xmlns:cc="http://creativecommons.org/ns#"
   xmlns:rdf="http://www.w3.org/1999/02/22-rdf-syntax-ns#"
   xmlns:svg="http://www.w3.org/2000/svg"
   xmlns="http://www.w3.org/2000/svg"
   xmlns:sodipodi="http://sodipodi.sourceforge.net/DTD/sodipodi-0.dtd"
   xmlns:inkscape="http://www.inkscape.org/namespaces/inkscape"
   inkscape:version="1.0 (4035a4f, 2020-05-01)"
   sodipodi:docname="photo_red_marker.svg"
   class=""
   height="512px"
   width="512px"
   xml:space="preserve"
   style="enable-background:new 0 0 512 512;"
   viewBox="0 0 512 512"
   y="0px"
   x="0px"
   id="Capa_1"
   version="1.1"><metadata
   id="metadata718"><rdf:RDF><cc:Work
       rdf:about=""><dc:format>image/svg+xml</dc:format><dc:type
         rdf:resource="http://purl.org/dc/dcmitype/StillImage" /><dc:title></dc:title></cc:Work></rdf:RDF></metadata><defs
   id="defs716" /><sodipodi:namedview
   inkscape:current-layer="Capa_1"
   inkscape:window-maximized="0"
   inkscape:window-y="26"
   inkscape:window-x="0"
   inkscape:cy="256"
   inkscape:cx="256"
   inkscape:zoom="1.3515625"
   showgrid="false"
   id="namedview714"
   inkscape:window-height="874"
   inkscape:window-width="1440"
   inkscape:pageshadow="2"
   inkscape:pageopacity="0"
   guidetolerance="10"
   gridtolerance="10"
   objecttolerance="10"
   borderopacity="1"
   bordercolor="#666666"
   pagecolor="#ffffff" /><g
   id="g711"><path
     id="path707"
     data-old_color="#2196F3"
     class=""
     data-original="#2196F3"
     d="M256,0C150.112,0,64,86.112,64,192c0,133.088,173.312,307.936,180.672,315.328  C247.808,510.432,251.904,512,256,512c4.096,0,8.192-1.568,11.328-4.672C274.688,499.936,448,325.088,448,192  C448,86.112,361.888,0,256,0z"
     style="fill:#C12020" /><path
     id="path709"
     data-old_color="#FAFAFA"
     class="active-path"
     data-original="#FAFAFA"
     d="M346.016,163.488l-80-64c-5.856-4.672-14.144-4.672-20,0l-80,64  c-5.312,4.256-7.36,11.392-5.12,17.824S169.216,192,176,192h16v80c0,8.832,7.168,16,16,16h96c8.832,0,16-7.168,16-16v-80h16  c6.784,0,12.832-4.288,15.104-10.688S351.328,167.744,346.016,163.488z"
     style="fill:#C12020" /></g> <g
   transform="matrix(0.5859375,0,0,0.5859375,106.3237,38.473989)"
   id="g857"><g
     id="g855"><path
       d="m 406,512 c 8.291,0 15,-6.709 15,-15 V 421 H 91 v 76 c 0,8.291 6.709,15 15,15 z"
       data-original="#000000"
       class="hovered-path active-path"
       data-old_color="#000000"
       fill="#ffffff"
       id="path843" /><circle
       cx="256"
       cy="226"
       r="15"
       data-original="#000000"
       class="hovered-path active-path"
       data-old_color="#000000"
       fill="#ffffff"
       id="circle845" /><path
       d="M 467,60 H 45 C 20.186,60 0,80.186 0,105 v 106 h 152.516 c 7.357,-50.75 50.729,-90 103.484,-90 52.755,0 96.127,39.25 103.484,90 H 512 V 105 C 512,80.186 491.814,60 467,60 Z m -31,91 h -60 c -8.291,0 -15,-6.709 -15,-15 0,-8.291 6.709,-15 15,-15 h 60 c 8.291,0 15,6.709 15,15 0,8.291 -6.709,15 -15,15 z"
       data-original="#000000"
       class="hovered-path active-path"
       data-old_color="#000000"
       fill="#ffffff"
       id="path847" /><path
       d="m 256,331 c -52.755,0 -96.127,-39.25 -103.484,-90 H 0 v 105 c 0,24.814 20.186,45 45,45 h 422 c 24.814,0 45,-20.186 45,-45 V 241 H 359.484 C 352.127,291.75 308.755,331 256,331 Z"
       data-original="#000000"
       class="hovered-path active-path"
       data-old_color="#000000"
       fill="#ffffff"
       id="path849" /><path
       d="m 256,301 c 41.353,0 75,-33.647 75,-75 0,-41.353 -33.647,-75 -75,-75 -41.353,0 -75,33.647 -75,75 0,41.353 33.647,75 75,75 z m 0,-120 c 24.814,0 45,20.186 45,45 0,24.814 -20.186,45 -45,45 -24.814,0 -45,-20.186 -45,-45 0,-24.814 20.186,-45 45,-45 z"
       data-original="#000000"
       class="hovered-path active-path"
       data-old_color="#000000"
       fill="#ffffff"
       id="path851" /><path
       d="M 181,15 C 181,6.709 174.291,0 166,0 H 106 C 97.709,0 91,6.709 91,15 v 15 h 90 z"
       data-original="#000000"
       class="hovered-path active-path"
       data-old_color="#000000"
       fill="#ffffff"
       id="path853" /></g></g></svg>
