<?xml version="1.0" encoding="UTF-8" standalone="no"?>
<svg
   xmlns:dc="http://purl.org/dc/elements/1.1/"
   xmlns:cc="http://creativecommons.org/ns#"
   xmlns:rdf="http://www.w3.org/1999/02/22-rdf-syntax-ns#"
   xmlns:svg="http://www.w3.org/2000/svg"
   xmlns="http://www.w3.org/2000/svg"
   xmlns:sodipodi="http://sodipodi.sourceforge.net/DTD/sodipodi-0.dtd"
   xmlns:inkscape="http://www.inkscape.org/namespaces/inkscape"
   version="1.1"
   id="Capa_1"
   x="0px"
   y="0px"
   viewBox="0 0 512 512"
   style="enable-background:new 0 0 512 512;"
   xml:space="preserve"
   width="512px"
   height="512px"
   class=""
   sodipodi:docname="request_marker.svg"
   inkscape:version="1.0 (4035a4f, 2020-05-01)"><metadata
   id="metadata1143"><rdf:RDF><cc:Work
       rdf:about=""><dc:format>image/svg+xml</dc:format><dc:type
         rdf:resource="http://purl.org/dc/dcmitype/StillImage" /><dc:title></dc:title></cc:Work></rdf:RDF></metadata><defs
   id="defs1141" /><sodipodi:namedview
   inkscape:document-rotation="0"
   pagecolor="#ffffff"
   bordercolor="#666666"
   borderopacity="1"
   objecttolerance="10"
   gridtolerance="10"
   guidetolerance="10"
   inkscape:pageopacity="0"
   inkscape:pageshadow="2"
   inkscape:window-width="1440"
   inkscape:window-height="874"
   id="namedview1139"
   showgrid="false"
   inkscape:zoom="1.3515625"
   inkscape:cx="256"
   inkscape:cy="256"
   inkscape:window-x="0"
   inkscape:window-y="26"
   inkscape:window-maximized="0"
   inkscape:current-layer="Capa_1" /><g
   id="g1136"><path
     style="fill:#2196F3"
     d="M256,0C150.112,0,64,86.112,64,192c0,133.088,173.312,307.936,180.672,315.328  C247.808,510.432,251.904,512,256,512c4.096,0,8.192-1.568,11.328-4.672C274.688,499.936,448,325.088,448,192  C448,86.112,361.888,0,256,0z"
     data-original="#2196F3"
     class=""
     id="path1132" /><path
     style="fill:#2196F3"
     d="M346.016,163.488l-80-64c-5.856-4.672-14.144-4.672-20,0l-80,64  c-5.312,4.256-7.36,11.392-5.12,17.824S169.216,192,176,192h16v80c0,8.832,7.168,16,16,16h96c8.832,0,16-7.168,16-16v-80h16  c6.784,0,12.832-4.288,15.104-10.688S351.328,167.744,346.016,163.488z"
     data-original="#FAFAFA"
     class="active-path"
     data-old_color="#FAFAFA"
     id="path1134" /></g> <g
   transform="matrix(0.546875,0,0,0.546875,119.12139,57.433526)"
   id="g1603"><path
     d="M 448.80078,0 H 256 C 221.09375,0 192.80078,28.242188 192.80078,63.199219 V 352.39844 c 0,12.26953 14.07031,19.44531 24,12 l 60.26563,-45.19922 H 448.80078 C 483.70703,319.19922 512,290.95703 512,256 V 63.199219 C 512,28.292969 483.75781,0 448.80078,0 Z m -96.40234,246.89844 c -8.27735,0 -15,-6.71875 -15,-15 0,-8.27735 6.72265,-15 15,-15 8.28125,0 15,6.72265 15,15 0,8.28125 -6.71875,15 -15,15 z m 15,-66.33594 v 3.13672 c 0,8.28515 -6.71485,15 -15,15 -8.28125,0 -15,-6.71485 -15,-15 v -16.06641 c 0,-8.28515 6.71875,-15 15,-15 13.8789,0 25.16797,-11.28906 25.16797,-25.16797 0,-13.875 -11.28907,-25.16406 -25.16797,-25.16406 -13.94922,0 -25.16407,11.28125 -25.16407,25.14844 0,8.28515 -6.71875,15.01172 -15,15.01172 -8.28515,0 -15,-6.71094 -15,-14.99219 v -0.0195 c 0,-30.507814 24.69532,-55.148439 55.14844,-55.148439 30.4375,0 55.1836,24.746094 55.1836,55.167969 0,25.21875 -17.01172,46.54297 -40.16797,53.09375 z m 0,0"
     data-original="#000000"
     class="active-path"
     data-old_color="#000000"
     fill="#ffffff"
     id="path1597" /><path
     d="m 166.23828,311.89844 c 0,39.16015 -31.74609,70.90625 -70.906249,70.90625 -39.160156,0 -70.90625,-31.7461 -70.90625,-70.90625 0,-39.16407 31.746094,-70.91016 70.90625,-70.91016 39.160159,0 70.906249,31.74609 70.906249,70.91016 z m 0,0"
     data-original="#000000"
     class="active-path"
     data-old_color="#000000"
     fill="#ffffff"
     id="path1599" /><path
     d="M 95.332031,382.80469 C 42.683594,382.80469 0,425.48828 0,478.13672 V 497 c 0,8.28516 6.714844,15 15,15 h 160.66797 c 8.28125,0 15,-6.71484 15,-15 v -18.86328 c 0,-52.64844 -42.6836,-95.33203 -95.335939,-95.33203 z m 0,0"
     data-original="#000000"
     class="active-path"
     data-old_color="#000000"
     fill="#ffffff"
     id="path1601" /></g></svg>
