<?xml version="1.0" encoding="UTF-8" standalone="no"?>
<svg
   xmlns:dc="http://purl.org/dc/elements/1.1/"
   xmlns:cc="http://creativecommons.org/ns#"
   xmlns:rdf="http://www.w3.org/1999/02/22-rdf-syntax-ns#"
   xmlns:svg="http://www.w3.org/2000/svg"
   xmlns="http://www.w3.org/2000/svg"
   xmlns:sodipodi="http://sodipodi.sourceforge.net/DTD/sodipodi-0.dtd"
   xmlns:inkscape="http://www.inkscape.org/namespaces/inkscape"
   inkscape:version="1.0 (4035a4f, 2020-05-01)"
   sodipodi:docname="walking_marker.svg"
   class=""
   height="512px"
   width="512px"
   xml:space="preserve"
   style="enable-background:new 0 0 512 512;"
   viewBox="0 0 512 512"
   y="0px"
   x="0px"
   id="Capa_1"
   version="1.1"><metadata
   id="metadata825"><rdf:RDF><cc:Work
       rdf:about=""><dc:format>image/svg+xml</dc:format><dc:type
         rdf:resource="http://purl.org/dc/dcmitype/StillImage" /><dc:title></dc:title></cc:Work></rdf:RDF></metadata><defs
   id="defs823" /><sodipodi:namedview
   inkscape:current-layer="Capa_1"
   inkscape:window-maximized="0"
   inkscape:window-y="26"
   inkscape:window-x="0"
   inkscape:cy="256"
   inkscape:cx="256"
   inkscape:zoom="1.3515625"
   showgrid="false"
   id="namedview821"
   inkscape:window-height="874"
   inkscape:window-width="1440"
   inkscape:pageshadow="2"
   inkscape:pageopacity="0"
   guidetolerance="10"
   gridtolerance="10"
   objecttolerance="10"
   borderopacity="1"
   bordercolor="#666666"
   pagecolor="#ffffff" /><g
   id="g818"><path
     id="path814"
     class=""
     data-original="#2196F3"
     d="M256,0C150.112,0,64,86.112,64,192c0,133.088,173.312,307.936,180.672,315.328  C247.808,510.432,251.904,512,256,512c4.096,0,8.192-1.568,11.328-4.672C274.688,499.936,448,325.088,448,192  C448,86.112,361.888,0,256,0z"
     style="fill:#2196F3" /><path
     id="path816"
     data-old_color="#FAFAFA"
     class="active-path"
     data-original="#FAFAFA"
     d="M346.016,163.488l-80-64c-5.856-4.672-14.144-4.672-20,0l-80,64  c-5.312,4.256-7.36,11.392-5.12,17.824S169.216,192,176,192h16v80c0,8.832,7.168,16,16,16h96c8.832,0,16-7.168,16-16v-80h16  c6.784,0,12.832-4.288,15.104-10.688S351.328,167.744,346.016,163.488z"
     style="fill:#2196F3" /></g> <g
   transform="matrix(0.53855186,0,0,0.53894737,87.910356,29.647654)"
   id="g889"><path
     d="m 473.35937,264.00781 -13.02343,4.34375 -102.06641,-132.69922 26.23828,-19.69921 z M 175.28125,0.375 239.39453,34.789062 c 8.88281,4.695313 13.32813,14.921876 10.69531,24.625 L 240.67187,91.167969 175.19922,51.910156 152.52344,38.300781 Z m -67.53906,108.85938 5.83984,-9.1211 37.52734,27.90625 c 19.09766,14.33984 28.85547,37.96094 25.4336,61.59375 L 175.12109,222.58203 73.183594,163.82422 Z M 593.125,441.42969 H 425.93359 L 26.714844,220.14844 49.765625,176.80859 427.73047,394.29297 c 1.73828,0.99219 3.70703,1.51562 5.70703,1.51562 H 638.75 c 0,25.19922 -20.42969,45.6211 -45.625,45.6211 z m 45.625,-68.4336 H 436.48437 L 358.25,327.95312 384.55078,301.13281 c 4.34766,-4.55859 4.17188,-11.77734 -0.39062,-16.125 -4.46875,-4.25781 -11.51563,-4.18359 -15.89454,0.15625 l -30.43359,31.02735 -43.34375,-24.98047 43.46875,-34.77344 c 4.92188,-3.9375 5.71485,-11.12109 1.77735,-16.03906 -3.9375,-4.92188 -11.11329,-5.71485 -16.03516,-1.77735 L 273.25,278.98438 236.10938,257.62891 292.45313,210.67188 c 4.84765,-4.03125 5.5039,-11.22657 1.47265,-16.07422 -4.02734,-4.84375 -11.22656,-5.5 -16.07031,-1.46875 l -62.82813,52.36718 -17.6289,-10.15234 1.84375,-43.78906 c 4.22656,-31.54688 -8.9961,-62.89453 -34.52735,-81.89453 L 125.85547,80.765625 140.53516,57.714844 241.50391,118.29297 c 1.35547,0.78125 2.86328,1.26172 4.41797,1.42187 0.26953,0 0.51171,0.0937 0.78125,0.11719 0.27343,0.0195 0.44921,0.0781 0.66406,0.0781 1.41406,0.008 2.8125,-0.25391 4.1289,-0.76563 L 367.03906,74.585938 c 2.11719,-0.804688 4.48438,-0.53125 6.35547,0.738281 1.88281,1.289062 2.9961,3.425781 2.97656,5.703125 V 93.578125 L 335.3125,124.37109 c -5.03906,3.78516 -6.05469,10.9336 -2.26953,15.97266 0.0273,0.0312 0.0508,0.0664 0.0742,0.0977 l 114.0625,148.28515 c 2.94922,3.85938 8.03125,5.41407 12.63672,3.86328 l 32.0664,-10.6875 102.4961,7.32032 c 24.94531,1.84765 44.27343,22.57812 44.37109,47.58984 z m 0,0"
     data-original="#000000"
     class="active-path"
     data-old_color="#000000"
     fill="#ffffff"
     id="path881" /><path
     d="M 68.433594,304.55469 H 11.410156 C 5.105469,304.55469 0,309.66406 0,315.96484 c 0,6.30078 5.105469,11.40235 11.410156,11.40235 h 57.023438 c 6.304687,0 11.410156,-5.10157 11.410156,-11.40235 0,-6.30078 -5.105469,-11.41015 -11.410156,-11.41015 z m 0,0"
     data-original="#000000"
     class="active-path"
     data-old_color="#000000"
     fill="#ffffff"
     id="path883" /><path
     d="m 0,384.39844 c 0,6.30078 5.105469,11.41015 11.410156,11.41015 H 159.6875 c 6.30078,0 11.41016,-5.10937 11.41016,-11.41015 0,-6.29688 -5.10938,-11.40235 -11.41016,-11.40235 H 11.410156 C 5.105469,372.99609 0,378.10156 0,384.39844 Z m 0,0"
     data-original="#000000"
     class="active-path"
     data-old_color="#000000"
     fill="#ffffff"
     id="path885" /><path
     d="M 285.15625,441.42969 H 11.410156 C 5.105469,441.42969 0,446.53906 0,452.83984 c 0,6.29688 5.105469,11.40235 11.410156,11.40235 H 285.15625 c 6.30078,0 11.40625,-5.10547 11.40625,-11.40235 0,-6.30078 -5.10547,-11.41015 -11.40625,-11.41015 z m 0,0"
     data-original="#000000"
     class="active-path"
     data-old_color="#000000"
     fill="#ffffff"
     id="path887" /></g></svg>
